<?xml version="1.0" encoding="utf-8"?>
<svg xmlns="http://www.w3.org/2000/svg" viewBox="118.032 125.551 256 256" width="256px" height="256px"><path style="stroke-width: 1px; fill: rgb(198, 160, 246);" d="M 246.032 125.551 C 234.637 153.488 227.718 171.788 215.032 198.894 C 222.81 207.139 232.37 216.706 247.875 227.551 C 231.206 220.691 219.842 213.822 211.344 206.676 C 195.108 240.555 169.653 288.797 118.032 381.551 C 158.594 358.133 190.039 343.689 219.344 338.176 C 218.09 332.771 217.421 326.898 217.469 320.801 L 217.5 319.519 C 218.144 293.525 231.67 273.537 247.688 274.894 C 263.706 276.252 276.176 298.432 275.532 324.426 C 275.41 329.322 274.841 334.026 273.875 338.394 C 302.865 344.067 334.013 358.447 374.032 381.551 C 366.14 367.021 359.071 353.931 352.344 341.457 C 341.748 333.244 330.701 322.559 308.157 310.988 C 323.653 315.014 334.759 319.671 343.407 324.863 C 275.012 197.523 269.486 180.591 246.032 125.551 Z" id="object-0" transform="matrix(1, 0, 0, 1, 0, 7.105427357601002e-15)"/></svg>